STARTFONT 2.3
FONT -FontForge-Butcherman-Book-R-Normal--9-90-72-72-P-49-ISO10646-1
SIZE 9 72 72  2
FONTBOUNDINGBOX 14 18 -1 -6
COMMENT "Generated by fontforge, http://fontforge.sourceforge.net"
COMMENT "Copyright (c) 2011, Typomondo, with Reserved Font Name  "Butcherman"."
STARTPROPERTIES 41
FOUNDRY "FontForge"
FAMILY_NAME "Butcherman"
WEIGHT_NAME "Book"
SLANT "R"
SETWIDTH_NAME "Normal"
ADD_STYLE_NAME ""
PIXEL_SIZE 9
POINT_SIZE 90
RESOLUTION_X 72
RESOLUTION_Y 72
SPACING "P"
AVERAGE_WIDTH 49
CHARSET_REGISTRY "ISO10646"
CHARSET_ENCODING "1"
FONTNAME_REGISTRY ""
CHARSET_COLLECTIONS "ISO8859-2 ISO8859-9 ISO8859-4 ISO10646-1"
BITS_PER_PIXEL 2
FONT_NAME "Butcherman-Regular"
FACE_NAME "Butcherman Regular"
COPYRIGHT "Copyright (c) 2011, Typomondo, with Reserved Font Name  "Butcherman"."
FONT_VERSION "001.004"
FONT_ASCENT 7
FONT_DESCENT 2
UNDERLINE_POSITION -1
UNDERLINE_THICKNESS 1
X_HEIGHT 6
CAP_HEIGHT 6
DEFAULT_CHAR 3
RAW_ASCENT 799
RAW_DESCENT 200
NORM_SPACE 1
RELATIVE_WEIGHT 40
RELATIVE_SETWIDTH 50
SUPERSCRIPT_X 0
SUPERSCRIPT_Y 3
SUPERSCRIPT_SIZE 5
SUBSCRIPT_X 0
SUBSCRIPT_Y 0
SUBSCRIPT_SIZE 5
AVG_LOWERCASE_WIDTH 52
AVG_UPPERCASE_WIDTH 51
ENDPROPERTIES
CHARS 331
STARTCHAR NULL.dup1
ENCODING 0
SWIDTH 161 0
DWIDTH 1 0
BBX 1 1 0 0
BITMAP
00
ENDCHAR
STARTCHAR CR
ENCODING 13
SWIDTH 161 0
DWIDTH 1 0
BBX 1 1 0 0
BITMAP
00
ENDCHAR
STARTCHAR space
ENCODING 32
SWIDTH 161 0
DWIDTH 1 0
BBX 1 1 0 0
BITMAP
00
ENDCHAR
STARTCHAR exclam
ENCODING 33
SWIDTH 350 0
DWIDTH 3 0
BBX 3 11 0 0
BITMAP
B8
78
74
74
34
34
20
00
B8
78
64
ENDCHAR
STARTCHAR quotedbl
ENCODING 34
SWIDTH 541 0
DWIDTH 5 0
BBX 5 4 0 3
BITMAP
6640
7740
7300
2100
ENDCHAR
STARTCHAR numbersign
ENCODING 35
SWIDTH 583 0
DWIDTH 5 0
BBX 5 8 0 -1
BITMAP
0880
1980
7FC0
2740
2200
FF00
5500
4800
ENDCHAR
STARTCHAR dollar
ENCODING 36
SWIDTH 534 0
DWIDTH 5 0
BBX 5 12 0 -3
BITMAP
0400
0800
1D00
7F40
BF40
BA40
7E00
1B00
3E00
0800
0800
0400
ENDCHAR
STARTCHAR percent
ENCODING 37
SWIDTH 828 0
DWIDTH 7 0
BBX 7 8 0 -1
BITMAP
1080
B880
A994
A62C
122C
022C
0504
0400
ENDCHAR
STARTCHAR ampersand
ENCODING 38
SWIDTH 522 0
DWIDTH 5 0
BBX 5 5 0 1
BITMAP
1800
1D00
BF40
6D00
1800
ENDCHAR
STARTCHAR quotesingle
ENCODING 39
SWIDTH 300 0
DWIDTH 3 0
BBX 2 4 0 3
BITMAP
60
70
70
20
ENDCHAR
STARTCHAR parenleft
ENCODING 40
SWIDTH 372 0
DWIDTH 3 0
BBX 3 9 0 -1
BITMAP
04
2C
7C
B8
B0
B0
B0
38
1C
ENDCHAR
STARTCHAR parenright
ENCODING 41
SWIDTH 338 0
DWIDTH 3 0
BBX 3 9 0 -1
BITMAP
50
B4
B8
78
28
24
24
30
A0
ENDCHAR
STARTCHAR asterisk
ENCODING 42
SWIDTH 513 0
DWIDTH 5 0
BBX 5 5 0 2
BITMAP
2500
2D00
BF40
1D00
2500
ENDCHAR
STARTCHAR plus
ENCODING 43
SWIDTH 458 0
DWIDTH 4 0
BBX 4 4 0 1
BITMAP
28
BE
29
14
ENDCHAR
STARTCHAR comma
ENCODING 44
SWIDTH 361 0
DWIDTH 3 0
BBX 3 4 0 -1
BITMAP
B8
B8
68
18
ENDCHAR
STARTCHAR hyphen
ENCODING 45
SWIDTH 478 0
DWIDTH 4 0
BBX 4 3 0 2
BITMAP
15
7E
15
ENDCHAR
STARTCHAR period
ENCODING 46
SWIDTH 374 0
DWIDTH 3 0
BBX 3 3 0 0
BITMAP
7C
7C
64
ENDCHAR
STARTCHAR slash
ENCODING 47
SWIDTH 291 0
DWIDTH 3 0
BBX 3 8 0 -1
BITMAP
18
14
20
20
50
80
80
40
ENDCHAR
STARTCHAR zero
ENCODING 48
SWIDTH 528 0
DWIDTH 5 0
BBX 5 8 0 -1
BITMAP
1900
7F00
BF40
BB40
6740
7700
3E00
0400
ENDCHAR
STARTCHAR one
ENCODING 49
SWIDTH 366 0
DWIDTH 3 0
BBX 3 7 0 0
BITMAP
14
B8
38
38
28
28
28
ENDCHAR
STARTCHAR two
ENCODING 50
SWIDTH 575 0
DWIDTH 5 0
BBX 5 8 0 -1
BITMAP
1900
7F40
BF40
7B40
1B00
0E40
7FC0
6540
ENDCHAR
STARTCHAR three
ENCODING 51
SWIDTH 517 0
DWIDTH 5 0
BBX 5 8 0 -1
BITMAP
2800
BF00
BF40
7B00
0F00
1700
2F00
1500
ENDCHAR
STARTCHAR four
ENCODING 52
SWIDTH 466 0
DWIDTH 4 0
BBX 4 9 0 -2
BITMAP
69
38
78
74
7A
7A
BF
09
05
ENDCHAR
STARTCHAR five
ENCODING 53
SWIDTH 583 0
DWIDTH 5 0
BBX 5 8 0 -1
BITMAP
6A80
7FC0
BF80
7640
7A00
1700
2F00
0500
ENDCHAR
STARTCHAR six
ENCODING 54
SWIDTH 582 0
DWIDTH 5 0
BBX 5 8 0 -1
BITMAP
1900
BF80
BFC0
7B80
7640
3B40
3B40
1A00
ENDCHAR
STARTCHAR seven
ENCODING 55
SWIDTH 624 0
DWIDTH 6 0
BBX 6 8 0 -1
BITMAP
6A90
BFD0
BFC0
6B80
0340
0700
0900
0800
ENDCHAR
STARTCHAR eight
ENCODING 56
SWIDTH 459 0
DWIDTH 4 0
BBX 4 8 0 -1
BITMAP
69
BE
BE
6A
3D
29
3C
14
ENDCHAR
STARTCHAR nine
ENCODING 57
SWIDTH 584 0
DWIDTH 5 0
BBX 5 8 0 -1
BITMAP
1900
7F80
BF80
BBC0
7F80
1740
3F00
0400
ENDCHAR
STARTCHAR colon
ENCODING 58
SWIDTH 386 0
DWIDTH 3 0
BBX 3 8 0 0
BITMAP
68
7C
7C
00
00
7C
7C
24
ENDCHAR
STARTCHAR semicolon
ENCODING 59
SWIDTH 375 0
DWIDTH 3 0
BBX 3 10 0 -2
BITMAP
68
78
78
00
00
78
78
68
18
04
ENDCHAR
STARTCHAR less
ENCODING 60
SWIDTH 459 0
DWIDTH 4 0
BBX 4 6 0 0
BITMAP
15
2D
B4
78
2D
05
ENDCHAR
STARTCHAR equal
ENCODING 61
SWIDTH 485 0
DWIDTH 4 0
BBX 4 4 0 2
BITMAP
55
69
69
15
ENDCHAR
STARTCHAR greater
ENCODING 62
SWIDTH 432 0
DWIDTH 4 0
BBX 4 6 0 0
BITMAP
64
38
1D
2D
78
10
ENDCHAR
STARTCHAR question
ENCODING 63
SWIDTH 577 0
DWIDTH 5 0
BBX 5 8 0 -1
BITMAP
3E00
BF40
7B40
1740
0A00
0400
1900
1D00
ENDCHAR
STARTCHAR at
ENCODING 64
SWIDTH 930 0
DWIDTH 8 0
BBX 8 10 0 -2
BITMAP
0690
1964
27ED
5BE6
9BA7
96A7
96B3
67AD
2400
0BD0
ENDCHAR
STARTCHAR A
ENCODING 65
SWIDTH 494 0
DWIDTH 4 0
BBX 4 8 0 -1
BITMAP
55
3E
3D
3D
39
3D
3D
24
ENDCHAR
STARTCHAR B
ENCODING 66
SWIDTH 517 0
DWIDTH 5 0
BBX 5 8 0 -1
BITMAP
6A00
7F40
3F40
3B00
3E00
3A00
2A00
0400
ENDCHAR
STARTCHAR C
ENCODING 67
SWIDTH 504 0
DWIDTH 5 0
BBX 5 8 0 -1
BITMAP
1900
7F40
BF40
BB40
7100
7600
3E00
1400
ENDCHAR
STARTCHAR D
ENCODING 68
SWIDTH 522 0
DWIDTH 5 0
BBX 5 8 0 -1
BITMAP
5900
7F40
7F80
3B40
3640
3700
2F00
1400
ENDCHAR
STARTCHAR E
ENCODING 69
SWIDTH 570 0
DWIDTH 5 0
BBX 5 8 0 -1
BITMAP
6A40
7F40
3F40
3900
3D00
3900
2E00
0400
ENDCHAR
STARTCHAR F
ENCODING 70
SWIDTH 559 0
DWIDTH 5 0
BBX 5 8 0 -1
BITMAP
6A40
3F40
3F00
2A00
2F00
2900
2800
0400
ENDCHAR
STARTCHAR G
ENCODING 71
SWIDTH 499 0
DWIDTH 4 0
BBX 5 8 0 -1
BITMAP
1800
BF00
BF40
BB00
6600
7700
3F00
1500
ENDCHAR
STARTCHAR H
ENCODING 72
SWIDTH 726 0
DWIDTH 7 0
BBX 6 8 0 -1
BITMAP
5990
79E0
39D0
39D0
2FC0
2AC0
2A80
0140
ENDCHAR
STARTCHAR I
ENCODING 73
SWIDTH 401 0
DWIDTH 4 0
BBX 3 7 0 0
BITMAP
68
7C
3C
38
38
28
28
ENDCHAR
STARTCHAR J
ENCODING 74
SWIDTH 455 0
DWIDTH 4 0
BBX 4 7 0 0
BITMAP
19
1D
1C
1C
1C
D8
F8
ENDCHAR
STARTCHAR K
ENCODING 75
SWIDTH 580 0
DWIDTH 5 0
BBX 5 8 0 -1
BITMAP
6640
7B40
3E00
2E00
2E00
1E00
1700
0100
ENDCHAR
STARTCHAR L
ENCODING 76
SWIDTH 416 0
DWIDTH 4 0
BBX 4 8 0 -1
BITMAP
68
74
74
34
34
39
2F
05
ENDCHAR
STARTCHAR M
ENCODING 77
SWIDTH 740 0
DWIDTH 7 0
BBX 6 7 0 0
BITMAP
69A0
7EE0
3FE0
3FE0
2FE0
2BD0
1990
ENDCHAR
STARTCHAR N
ENCODING 78
SWIDTH 610 0
DWIDTH 6 0
BBX 5 8 0 -1
BITMAP
6640
7A80
3F80
3F40
3F40
2B40
2700
1600
ENDCHAR
STARTCHAR O
ENCODING 79
SWIDTH 504 0
DWIDTH 5 0
BBX 5 8 0 -1
BITMAP
1900
BF40
BF40
BB40
7740
7700
3E00
1400
ENDCHAR
STARTCHAR P
ENCODING 80
SWIDTH 545 0
DWIDTH 5 0
BBX 5 8 0 -1
BITMAP
6A00
3F80
3F80
2A40
2A40
2E00
1800
0400
ENDCHAR
STARTCHAR Q
ENCODING 81
SWIDTH 520 0
DWIDTH 5 0
BBX 5 8 0 -1
BITMAP
1900
7F40
BF40
B740
7740
7B40
2F40
0640
ENDCHAR
STARTCHAR R
ENCODING 82
SWIDTH 599 0
DWIDTH 5 0
BBX 5 8 0 -1
BITMAP
6A40
7FC0
3FC0
2AC0
2FC0
1F40
1E80
0440
ENDCHAR
STARTCHAR S
ENCODING 83
SWIDTH 504 0
DWIDTH 5 0
BBX 5 8 0 -1
BITMAP
1900
7F40
BF40
BA40
7D00
2B00
7E00
1400
ENDCHAR
STARTCHAR T
ENCODING 84
SWIDTH 622 0
DWIDTH 6 0
BBX 5 8 0 -1
BITMAP
6A40
7FC0
3FC0
2E40
0A00
0A00
0A00
0900
ENDCHAR
STARTCHAR U
ENCODING 85
SWIDTH 637 0
DWIDTH 6 0
BBX 5 7 0 0
BITMAP
6540
76C0
3A80
3680
3740
3B40
2A00
ENDCHAR
STARTCHAR V
ENCODING 86
SWIDTH 570 0
DWIDTH 5 0
BBX 5 8 0 -1
BITMAP
6280
7780
3740
3B00
3E00
2D00
2D00
1800
ENDCHAR
STARTCHAR W
ENCODING 87
SWIDTH 777 0
DWIDTH 7 0
BBX 7 7 0 0
BITMAP
1624
7BB4
2FE0
1FD0
0FC0
0AC0
0680
ENDCHAR
STARTCHAR X
ENCODING 88
SWIDTH 587 0
DWIDTH 5 0
BBX 5 8 0 -1
BITMAP
6540
3B40
1E00
0E00
0D00
0D00
1A00
1100
ENDCHAR
STARTCHAR Y
ENCODING 89
SWIDTH 688 0
DWIDTH 6 0
BBX 6 8 0 -1
BITMAP
6490
2EE0
0B80
0740
0340
0340
0240
0100
ENDCHAR
STARTCHAR Z
ENCODING 90
SWIDTH 695 0
DWIDTH 6 0
BBX 6 7 0 0
BITMAP
6A90
7FE0
3FD0
2B80
0A00
0D00
1F00
ENDCHAR
STARTCHAR bracketleft
ENCODING 91
SWIDTH 410 0
DWIDTH 4 0
BBX 4 8 0 0
BITMAP
69
7D
70
70
70
70
70
7D
ENDCHAR
STARTCHAR backslash
ENCODING 92
SWIDTH 292 0
DWIDTH 3 0
BBX 3 8 0 -1
BITMAP
80
80
50
20
20
10
14
04
ENDCHAR
STARTCHAR bracketright
ENCODING 93
SWIDTH 407 0
DWIDTH 4 0
BBX 3 8 0 0
BITMAP
68
BC
1C
1C
1C
1C
1C
BC
ENDCHAR
STARTCHAR asciicircum
ENCODING 94
SWIDTH 523 0
DWIDTH 5 0
BBX 5 4 0 6
BITMAP
1800
3E00
7740
5100
ENDCHAR
STARTCHAR underscore
ENCODING 95
SWIDTH 452 0
DWIDTH 4 0
BBX 4 2 0 -1
BITMAP
BE
14
ENDCHAR
STARTCHAR grave
ENCODING 96
SWIDTH 444 0
DWIDTH 4 0
BBX 4 2 0 7
BITMAP
24
6D
ENDCHAR
STARTCHAR a
ENCODING 97
SWIDTH 479 0
DWIDTH 4 0
BBX 4 8 0 -1
BITMAP
6A
3E
3E
3E
3A
3A
3A
25
ENDCHAR
STARTCHAR b
ENCODING 98
SWIDTH 610 0
DWIDTH 6 0
BBX 6 8 0 -1
BITMAP
5A40
7FC0
3FD0
2EC0
2E80
2E80
1E80
0640
ENDCHAR
STARTCHAR c
ENCODING 99
SWIDTH 534 0
DWIDTH 5 0
BBX 5 8 0 -1
BITMAP
1900
BF40
BF80
BB80
7540
7600
3E00
0400
ENDCHAR
STARTCHAR d
ENCODING 100
SWIDTH 573 0
DWIDTH 5 0
BBX 5 8 0 -1
BITMAP
5900
7F80
3FC0
3EC0
2980
2A40
1F40
1600
ENDCHAR
STARTCHAR e
ENCODING 101
SWIDTH 632 0
DWIDTH 6 0
BBX 5 8 0 -1
BITMAP
5A40
7FC0
3F80
3D40
2E00
2D00
1F00
0100
ENDCHAR
STARTCHAR f
ENCODING 102
SWIDTH 559 0
DWIDTH 5 0
BBX 5 8 0 -1
BITMAP
6A40
3F40
3F00
2A00
2E00
2900
2800
0400
ENDCHAR
STARTCHAR g
ENCODING 103
SWIDTH 546 0
DWIDTH 5 0
BBX 5 8 0 -1
BITMAP
1900
BF40
BF80
BB80
7240
3B40
3B40
1A00
ENDCHAR
STARTCHAR h
ENCODING 104
SWIDTH 730 0
DWIDTH 7 0
BBX 6 8 0 -1
BITMAP
59A0
78F0
39E0
39D0
2FC0
29C0
2A80
0140
ENDCHAR
STARTCHAR i
ENCODING 105
SWIDTH 412 0
DWIDTH 4 0
BBX 3 7 0 0
BITMAP
68
3C
3C
38
28
28
24
ENDCHAR
STARTCHAR j
ENCODING 106
SWIDTH 458 0
DWIDTH 4 0
BBX 4 7 0 0
BITMAP
29
2E
1D
1D
1D
DC
BC
ENDCHAR
STARTCHAR k
ENCODING 107
SWIDTH 636 0
DWIDTH 6 0
BBX 5 7 0 0
BITMAP
6580
7A40
2B00
2E00
2E00
1F00
1A40
ENDCHAR
STARTCHAR l
ENCODING 108
SWIDTH 438 0
DWIDTH 4 0
BBX 4 8 0 -1
BITMAP
69
78
38
38
28
29
2F
11
ENDCHAR
STARTCHAR m
ENCODING 109
SWIDTH 770 0
DWIDTH 7 0
BBX 7 7 0 0
BITMAP
19A4
7EF0
3FE0
3FE0
3FD0
2AC0
2A80
ENDCHAR
STARTCHAR n
ENCODING 110
SWIDTH 664 0
DWIDTH 6 0
BBX 6 8 0 -1
BITMAP
6990
7DD0
7EC0
3FC0
3F80
3B80
2740
1200
ENDCHAR
STARTCHAR o
ENCODING 111
SWIDTH 545 0
DWIDTH 5 0
BBX 5 8 0 -1
BITMAP
1900
BF80
BF80
BB80
7340
7740
3F00
0500
ENDCHAR
STARTCHAR p
ENCODING 112
SWIDTH 557 0
DWIDTH 5 0
BBX 5 8 0 -1
BITMAP
6A00
3F80
3F80
3A80
2A40
2E00
2800
0400
ENDCHAR
STARTCHAR q
ENCODING 113
SWIDTH 562 0
DWIDTH 5 0
BBX 5 8 0 -1
BITMAP
1A00
7F80
BF80
B680
7680
3B80
2F80
0580
ENDCHAR
STARTCHAR r
ENCODING 114
SWIDTH 616 0
DWIDTH 6 0
BBX 6 8 0 -1
BITMAP
6A40
7FD0
3FD0
2DC0
2FC0
2F40
2A40
1540
ENDCHAR
STARTCHAR s
ENCODING 115
SWIDTH 481 0
DWIDTH 4 0
BBX 4 8 0 -1
BITMAP
19
7F
BF
BB
7D
1A
7D
14
ENDCHAR
STARTCHAR t
ENCODING 116
SWIDTH 683 0
DWIDTH 6 0
BBX 6 8 0 -1
BITMAP
6A90
7FD0
3FD0
2B40
0700
0700
0700
0700
ENDCHAR
STARTCHAR u
ENCODING 117
SWIDTH 708 0
DWIDTH 6 0
BBX 6 7 0 0
BITMAP
6850
79F0
3DE0
2DD0
2DD0
1EC0
1E80
ENDCHAR
STARTCHAR v
ENCODING 118
SWIDTH 644 0
DWIDTH 6 0
BBX 6 8 0 -1
BITMAP
6590
3AC0
2A80
2E40
1F40
0F00
0A00
0500
ENDCHAR
STARTCHAR w
ENCODING 119
SWIDTH 704 0
DWIDTH 6 0
BBX 6 7 0 0
BITMAP
5550
7BA0
2FD0
1FC0
0FC0
0E80
0580
ENDCHAR
STARTCHAR x
ENCODING 120
SWIDTH 599 0
DWIDTH 5 0
BBX 5 8 0 -1
BITMAP
6640
2B40
1E00
0E00
0D00
0E00
1A00
1100
ENDCHAR
STARTCHAR y
ENCODING 121
SWIDTH 604 0
DWIDTH 5 0
BBX 5 8 0 -1
BITMAP
6540
2B80
1F00
0E00
0A00
0A00
0A00
0400
ENDCHAR
STARTCHAR z
ENCODING 122
SWIDTH 622 0
DWIDTH 6 0
BBX 5 8 0 -1
BITMAP
6A40
7FC0
3F80
2B40
0900
0D00
1F00
0100
ENDCHAR
STARTCHAR braceleft
ENCODING 123
SWIDTH 372 0
DWIDTH 3 0
BBX 3 9 0 -1
BITMAP
04
2C
7C
B8
B0
B0
B0
38
1C
ENDCHAR
STARTCHAR bar
ENCODING 124
SWIDTH 208 0
DWIDTH 2 0
BBX 2 8 0 -1
BITMAP
50
50
50
50
50
50
50
50
ENDCHAR
STARTCHAR braceright
ENCODING 125
SWIDTH 338 0
DWIDTH 3 0
BBX 3 9 0 -1
BITMAP
50
B4
B8
78
28
24
24
30
A0
ENDCHAR
STARTCHAR asciitilde
ENCODING 126
SWIDTH 535 0
DWIDTH 5 0
BBX 4 2 0 5
BITMAP
6B
7A
ENDCHAR
STARTCHAR exclamdown
ENCODING 161
SWIDTH 347 0
DWIDTH 3 0
BBX 3 11 0 0
BITMAP
78
78
68
10
34
34
34
74
78
B8
64
ENDCHAR
STARTCHAR cent
ENCODING 162
SWIDTH 552 0
DWIDTH 5 0
BBX 5 12 0 -3
BITMAP
0400
0400
1A00
7F80
BF80
BB80
7540
3600
3F00
0800
0400
0400
ENDCHAR
STARTCHAR sterling
ENCODING 163
SWIDTH 589 0
DWIDTH 5 0
BBX 5 8 0 -1
BITMAP
1900
7F80
BFC0
7B80
7540
3900
3F40
1500
ENDCHAR
STARTCHAR yen
ENCODING 165
SWIDTH 692 0
DWIDTH 6 0
BBX 6 8 0 0
BITMAP
6590
2ED0
0F80
6FA0
6B90
0740
0340
0100
ENDCHAR
STARTCHAR brokenbar
ENCODING 166
SWIDTH 201 0
DWIDTH 2 0
BBX 2 8 0 -1
BITMAP
50
50
40
00
00
50
50
50
ENDCHAR
STARTCHAR section
ENCODING 167
SWIDTH 477 0
DWIDTH 4 0
BBX 4 9 0 -2
BITMAP
19
7F
7E
39
BA
A9
7C
6C
24
ENDCHAR
STARTCHAR dieresis
ENCODING 168
SWIDTH 633 0
DWIDTH 6 0
BBX 5 3 0 7
BITMAP
1140
77C0
6680
ENDCHAR
STARTCHAR copyright
ENCODING 169
SWIDTH 783 0
DWIDTH 7 0
BBX 7 8 0 -1
BITMAP
0A80
2790
9FC4
8EC4
8944
5A94
2660
0A80
ENDCHAR
STARTCHAR guillemotleft
ENCODING 171
SWIDTH 759 0
DWIDTH 7 0
BBX 7 6 0 0
BITMAP
1550
2DE0
76D0
75D0
2CA0
0514
ENDCHAR
STARTCHAR uni00AD
ENCODING 173
SWIDTH 446 0
DWIDTH 4 0
BBX 4 2 0 2
BITMAP
69
15
ENDCHAR
STARTCHAR registered
ENCODING 174
SWIDTH 780 0
DWIDTH 7 0
BBX 7 8 0 -1
BITMAP
0940
2A90
9FC4
8AC8
4B84
5684
2960
0640
ENDCHAR
STARTCHAR macron
ENCODING 175
SWIDTH 446 0
DWIDTH 4 0
BBX 4 2 0 2
BITMAP
69
15
ENDCHAR
STARTCHAR acute
ENCODING 180
SWIDTH 439 0
DWIDTH 4 0
BBX 3 2 0 7
BITMAP
18
78
ENDCHAR
STARTCHAR mu
ENCODING 181
SWIDTH 679 0
DWIDTH 6 0
BBX 6 7 0 0
BITMAP
6550
79E0
79D0
39C0
3AC0
2A80
1B80
ENDCHAR
STARTCHAR paragraph
ENCODING 182
SWIDTH 591 0
DWIDTH 5 0
BBX 5 7 0 0
BITMAP
2A40
BE80
BD80
7D40
2940
0540
0500
ENDCHAR
STARTCHAR periodcentered
ENCODING 183
SWIDTH 388 0
DWIDTH 4 0
BBX 3 3 0 2
BITMAP
68
7C
78
ENDCHAR
STARTCHAR cedilla
ENCODING 184
SWIDTH 270 0
DWIDTH 2 0
BBX 2 3 0 -3
BITMAP
50
60
70
ENDCHAR
STARTCHAR guillemotright
ENCODING 187
SWIDTH 767 0
DWIDTH 7 0
BBX 7 6 0 0
BITMAP
6540
38E0
1D74
2D74
78E0
1140
ENDCHAR
STARTCHAR Agrave
ENCODING 192
SWIDTH 494 0
DWIDTH 4 0
BBX 4 10 0 -1
BITMAP
90
B4
55
3E
3D
3D
39
3D
3D
24
ENDCHAR
STARTCHAR Aacute
ENCODING 193
SWIDTH 494 0
DWIDTH 4 0
BBX 5 10 0 -1
BITMAP
0180
0780
5900
3E00
3D00
3D00
3900
3D00
3D00
2400
ENDCHAR
STARTCHAR Acircumflex
ENCODING 194
SWIDTH 494 0
DWIDTH 4 0
BBX 4 12 0 -1
BITMAP
14
3D
67
41
55
3E
3D
3D
39
3D
3D
24
ENDCHAR
STARTCHAR Atilde
ENCODING 195
SWIDTH 494 0
DWIDTH 4 0
BBX 4 10 0 -1
BITMAP
AF
25
55
3E
3D
3D
39
3D
3D
24
ENDCHAR
STARTCHAR Adieresis
ENCODING 196
SWIDTH 494 0
DWIDTH 4 0
BBX 5 11 0 -1
BITMAP
5100
E740
A640
5500
3E00
3D00
3D00
3900
3D00
3D00
2400
ENDCHAR
STARTCHAR Aring
ENCODING 197
SWIDTH 494 0
DWIDTH 4 0
BBX 4 10 0 -1
BITMAP
29
29
69
3E
3D
3D
39
3D
3D
24
ENDCHAR
STARTCHAR AE
ENCODING 198
SWIDTH 733 0
DWIDTH 7 0
BBX 6 8 0 -1
BITMAP
5A90
3FF0
3FE0
3F50
3BC0
3F40
3FC0
2540
ENDCHAR
STARTCHAR Ccedilla
ENCODING 199
SWIDTH 504 0
DWIDTH 5 0
BBX 5 11 0 -4
BITMAP
1900
7F40
BF40
BB40
7100
7600
3E00
1400
0500
0600
0600
ENDCHAR
STARTCHAR Egrave
ENCODING 200
SWIDTH 570 0
DWIDTH 5 0
BBX 5 10 0 -1
BITMAP
6000
6800
6A40
7F40
3F40
3900
3D00
3900
2E00
0400
ENDCHAR
STARTCHAR Eacute
ENCODING 201
SWIDTH 570 0
DWIDTH 5 0
BBX 6 10 0 -1
BITMAP
0080
0390
6A40
7F40
3F40
3900
3D00
3900
2E00
0400
ENDCHAR
STARTCHAR Ecircumflex
ENCODING 202
SWIDTH 570 0
DWIDTH 5 0
BBX 5 12 0 -1
BITMAP
0400
2E00
3740
5140
6A40
7F40
3F40
3900
3D00
3900
2E00
0400
ENDCHAR
STARTCHAR Edieresis
ENCODING 203
SWIDTH 570 0
DWIDTH 5 0
BBX 5 11 0 -1
BITMAP
1140
B780
6280
6A40
7F40
3F40
3900
3D00
3900
2E00
0400
ENDCHAR
STARTCHAR Igrave
ENCODING 204
SWIDTH 401 0
DWIDTH 4 0
BBX 4 9 -1 0
BITMAP
60
68
1A
1F
0F
0E
0E
0A
0A
ENDCHAR
STARTCHAR Iacute
ENCODING 205
SWIDTH 401 0
DWIDTH 4 0
BBX 5 9 0 0
BITMAP
0240
0A40
6800
7C00
3C00
3800
3800
2800
2800
ENDCHAR
STARTCHAR Icircumflex
ENCODING 206
SWIDTH 401 0
DWIDTH 4 0
BBX 4 11 0 0
BITMAP
14
7C
D9
41
68
7C
3C
38
38
28
28
ENDCHAR
STARTCHAR Idieresis
ENCODING 207
SWIDTH 401 0
DWIDTH 4 0
BBX 5 10 -1 0
BITMAP
1140
77C0
6680
1A00
1F00
0F00
0E00
0E00
0A00
0A00
ENDCHAR
STARTCHAR Eth
ENCODING 208
SWIDTH 530 0
DWIDTH 5 0
BBX 5 8 0 -1
BITMAP
1A00
3F80
2FC0
2E80
6E80
1A40
1F00
1500
ENDCHAR
STARTCHAR Ntilde
ENCODING 209
SWIDTH 610 0
DWIDTH 6 0
BBX 5 11 0 -1
BITMAP
0100
7B40
2500
6640
7A80
3F80
3F40
3F40
2B40
2700
1600
ENDCHAR
STARTCHAR Ograve
ENCODING 210
SWIDTH 504 0
DWIDTH 5 0
BBX 5 10 0 -1
BITMAP
9000
B400
1900
BF40
BF40
BB40
7740
7700
3E00
1400
ENDCHAR
STARTCHAR Oacute
ENCODING 211
SWIDTH 504 0
DWIDTH 5 0
BBX 5 10 0 -1
BITMAP
0180
0780
1900
BF40
BF40
BB40
7740
7700
3E00
1400
ENDCHAR
STARTCHAR Ocircumflex
ENCODING 212
SWIDTH 504 0
DWIDTH 5 0
BBX 5 12 0 -1
BITMAP
1400
3D00
A700
4100
1900
BF40
BF40
BB40
7740
7700
3E00
1400
ENDCHAR
STARTCHAR Otilde
ENCODING 213
SWIDTH 504 0
DWIDTH 5 0
BBX 5 10 0 -1
BITMAP
AF00
6500
1900
BF40
BF40
BB40
7740
7700
3E00
1400
ENDCHAR
STARTCHAR Odieresis
ENCODING 214
SWIDTH 504 0
DWIDTH 5 0
BBX 5 11 0 -1
BITMAP
5100
E740
A640
1900
BF40
BF40
BB40
7740
7700
3E00
1400
ENDCHAR
STARTCHAR multiply
ENCODING 215
SWIDTH 359 0
DWIDTH 3 0
BBX 3 3 0 2
BITMAP
A8
78
BC
ENDCHAR
STARTCHAR Oslash
ENCODING 216
SWIDTH 658 0
DWIDTH 6 0
BBX 6 8 0 -1
BITMAP
1900
7F90
7F80
7780
3B80
3740
6F00
0500
ENDCHAR
STARTCHAR Ugrave
ENCODING 217
SWIDTH 637 0
DWIDTH 6 0
BBX 5 9 0 0
BITMAP
2000
6C00
6540
76C0
3A80
3680
3740
3B40
2A00
ENDCHAR
STARTCHAR Uacute
ENCODING 218
SWIDTH 637 0
DWIDTH 6 0
BBX 6 9 0 0
BITMAP
0090
0290
6540
76C0
3A80
3680
3740
3B40
2A00
ENDCHAR
STARTCHAR Ucircumflex
ENCODING 219
SWIDTH 637 0
DWIDTH 6 0
BBX 5 11 0 0
BITMAP
0500
1F00
2680
1040
6540
76C0
3A80
3680
3740
3B40
2A00
ENDCHAR
STARTCHAR Udieresis
ENCODING 220
SWIDTH 637 0
DWIDTH 6 0
BBX 5 10 0 0
BITMAP
1140
7AC0
6680
6540
76C0
3A80
3680
3740
3B40
2A00
ENDCHAR
STARTCHAR Yacute
ENCODING 221
SWIDTH 688 0
DWIDTH 6 0
BBX 6 10 0 -1
BITMAP
0060
01A0
6490
2EE0
0B80
0740
0340
0340
0240
0100
ENDCHAR
STARTCHAR Thorn
ENCODING 222
SWIDTH 521 0
DWIDTH 5 0
BBX 5 9 0 -1
BITMAP
B400
BA00
BF40
7F40
7740
3B00
3900
3400
1400
ENDCHAR
STARTCHAR germandbls
ENCODING 223
SWIDTH 546 0
DWIDTH 5 0
BBX 5 8 0 -1
BITMAP
1900
BF80
BF80
B740
7B00
7700
3700
1500
ENDCHAR
STARTCHAR agrave
ENCODING 224
SWIDTH 479 0
DWIDTH 4 0
BBX 4 10 0 -1
BITMAP
90
B4
6A
3E
3E
3E
3A
3A
3A
25
ENDCHAR
STARTCHAR aacute
ENCODING 225
SWIDTH 479 0
DWIDTH 4 0
BBX 5 10 0 -1
BITMAP
0180
0780
6A00
3E00
3E00
3E00
3A00
3A00
3A00
2500
ENDCHAR
STARTCHAR acircumflex
ENCODING 226
SWIDTH 479 0
DWIDTH 4 0
BBX 4 12 0 -1
BITMAP
14
3D
67
41
6A
3E
3E
3E
3A
3A
3A
25
ENDCHAR
STARTCHAR atilde
ENCODING 227
SWIDTH 479 0
DWIDTH 4 0
BBX 4 10 0 -1
BITMAP
AF
65
6A
3E
3E
3E
3A
3A
3A
25
ENDCHAR
STARTCHAR adieresis
ENCODING 228
SWIDTH 479 0
DWIDTH 4 0
BBX 5 11 0 -1
BITMAP
5140
F780
A640
6A00
3E00
3E00
3E00
3A00
3A00
3A00
2500
ENDCHAR
STARTCHAR aring
ENCODING 229
SWIDTH 479 0
DWIDTH 4 0
BBX 4 11 0 -1
BITMAP
29
25
04
6A
3E
3E
3E
3A
3A
3A
25
ENDCHAR
STARTCHAR ae
ENCODING 230
SWIDTH 755 0
DWIDTH 7 0
BBX 6 8 0 -1
BITMAP
6A90
3FF0
3FE0
3F50
3B80
3B40
3BD0
2540
ENDCHAR
STARTCHAR ccedilla
ENCODING 231
SWIDTH 534 0
DWIDTH 5 0
BBX 5 11 0 -4
BITMAP
1900
BF40
BF80
BB80
7540
7600
3E00
0400
0500
0600
0600
ENDCHAR
STARTCHAR egrave
ENCODING 232
SWIDTH 632 0
DWIDTH 6 0
BBX 5 10 0 -1
BITMAP
6000
6800
5A40
7FC0
3F80
3D40
2E00
2D00
1F00
0100
ENDCHAR
STARTCHAR eacute
ENCODING 233
SWIDTH 632 0
DWIDTH 6 0
BBX 6 10 0 -1
BITMAP
0090
0290
5A40
7FC0
3F80
3D40
2E00
2D00
1F00
0100
ENDCHAR
STARTCHAR ecircumflex
ENCODING 234
SWIDTH 632 0
DWIDTH 6 0
BBX 5 12 0 -1
BITMAP
0500
1F00
3640
1040
5A40
7FC0
3F80
3D40
2E00
2D00
1F00
0100
ENDCHAR
STARTCHAR edieresis
ENCODING 235
SWIDTH 632 0
DWIDTH 6 0
BBX 5 11 0 -1
BITMAP
1140
76C0
6680
5A40
7FC0
3F80
3D40
2E00
2D00
1F00
0100
ENDCHAR
STARTCHAR igrave
ENCODING 236
SWIDTH 411 0
DWIDTH 4 0
BBX 4 9 -1 0
BITMAP
60
68
1A
0F
0F
0E
0A
0A
09
ENDCHAR
STARTCHAR iacute
ENCODING 237
SWIDTH 411 0
DWIDTH 4 0
BBX 5 9 0 0
BITMAP
0240
0A40
6800
3C00
3C00
3800
2800
2800
2400
ENDCHAR
STARTCHAR icircumflex
ENCODING 238
SWIDTH 411 0
DWIDTH 4 0
BBX 4 11 0 0
BITMAP
14
7D
AA
41
68
3C
3C
38
28
28
24
ENDCHAR
STARTCHAR idieresis
ENCODING 239
SWIDTH 411 0
DWIDTH 4 0
BBX 5 10 -1 0
BITMAP
1140
76C0
6680
1A00
0F00
0F00
0E00
0A00
0A00
0900
ENDCHAR
STARTCHAR eth
ENCODING 240
SWIDTH 530 0
DWIDTH 5 0
BBX 5 8 0 -1
BITMAP
1A00
3F80
2FC0
2E80
6E80
1A40
1F00
1500
ENDCHAR
STARTCHAR ntilde
ENCODING 241
SWIDTH 664 0
DWIDTH 6 0
BBX 6 10 0 -1
BITMAP
3B80
1940
6990
7DD0
7EC0
3FC0
3F80
3B80
2740
1200
ENDCHAR
STARTCHAR ograve
ENCODING 242
SWIDTH 545 0
DWIDTH 5 0
BBX 5 10 0 -1
BITMAP
9000
A800
1900
BF80
BF80
BB80
7340
7740
3F00
0500
ENDCHAR
STARTCHAR oacute
ENCODING 243
SWIDTH 545 0
DWIDTH 5 0
BBX 5 10 0 -1
BITMAP
0180
0780
1900
BF80
BF80
BB80
7340
7740
3F00
0500
ENDCHAR
STARTCHAR ocircumflex
ENCODING 244
SWIDTH 545 0
DWIDTH 5 0
BBX 5 12 0 -1
BITMAP
1400
3E00
6700
4100
1900
BF80
BF80
BB80
7340
7740
3F00
0500
ENDCHAR
STARTCHAR otilde
ENCODING 245
SWIDTH 545 0
DWIDTH 5 0
BBX 5 10 0 -1
BITMAP
AF00
2500
1900
BF80
BF80
BB80
7340
7740
3F00
0500
ENDCHAR
STARTCHAR odieresis
ENCODING 246
SWIDTH 545 0
DWIDTH 5 0
BBX 5 11 0 -1
BITMAP
5140
B780
A240
1900
BF80
BF80
BB80
7340
7740
3F00
0500
ENDCHAR
STARTCHAR oslash
ENCODING 248
SWIDTH 676 0
DWIDTH 6 0
BBX 5 8 0 -1
BITMAP
1900
7F80
BF80
7B80
7740
3740
6F00
0500
ENDCHAR
STARTCHAR ugrave
ENCODING 249
SWIDTH 708 0
DWIDTH 6 0
BBX 6 9 0 0
BITMAP
2400
2D00
6850
79F0
3DE0
2DD0
2DD0
1EC0
1E80
ENDCHAR
STARTCHAR uacute
ENCODING 250
SWIDTH 708 0
DWIDTH 6 0
BBX 6 9 0 0
BITMAP
0060
01E0
6850
79F0
3DE0
2DD0
2DD0
1EC0
1E80
ENDCHAR
STARTCHAR ucircumflex
ENCODING 251
SWIDTH 708 0
DWIDTH 6 0
BBX 6 11 0 0
BITMAP
0500
0F40
19C0
1040
6850
79F0
3DE0
2DD0
2DD0
1EC0
1E80
ENDCHAR
STARTCHAR udieresis
ENCODING 252
SWIDTH 708 0
DWIDTH 6 0
BBX 6 10 0 0
BITMAP
1440
39D0
2990
6850
79F0
3DE0
2DD0
2DD0
1EC0
1E80
ENDCHAR
STARTCHAR yacute
ENCODING 253
SWIDTH 604 0
DWIDTH 5 0
BBX 6 10 0 -1
BITMAP
0090
0290
6540
2B80
1F00
0E00
0A00
0A00
0A00
0400
ENDCHAR
STARTCHAR thorn
ENCODING 254
SWIDTH 498 0
DWIDTH 4 0
BBX 5 9 0 -1
BITMAP
B400
B900
BF00
7F40
7700
3B00
3900
3400
1400
ENDCHAR
STARTCHAR ydieresis
ENCODING 255
SWIDTH 604 0
DWIDTH 5 0
BBX 6 11 0 -1
BITMAP
1140
3AD0
2580
6540
2B80
1F00
0E00
0A00
0A00
0A00
0400
ENDCHAR
STARTCHAR Amacron
ENCODING 256
SWIDTH 494 0
DWIDTH 4 0
BBX 4 10 0 -1
BITMAP
69
15
55
3E
3D
3D
39
3D
3D
24
ENDCHAR
STARTCHAR amacron
ENCODING 257
SWIDTH 479 0
DWIDTH 4 0
BBX 4 10 0 -1
BITMAP
2A
15
6A
3E
3E
3E
3A
3A
3A
25
ENDCHAR
STARTCHAR Abreve
ENCODING 258
SWIDTH 494 0
DWIDTH 4 0
BBX 5 11 0 -1
BITMAP
3240
2F00
0500
5500
3E00
3D00
3D00
3900
3D00
3D00
2400
ENDCHAR
STARTCHAR abreve
ENCODING 259
SWIDTH 479 0
DWIDTH 4 0
BBX 5 11 0 -1
BITMAP
3240
2F00
0500
6A00
3E00
3E00
3E00
3A00
3A00
3A00
2500
ENDCHAR
STARTCHAR Aogonek
ENCODING 260
SWIDTH 494 0
DWIDTH 4 0
BBX 4 11 0 -4
BITMAP
55
3E
3D
3D
39
3D
3D
28
0C
0D
06
ENDCHAR
STARTCHAR aogonek
ENCODING 261
SWIDTH 479 0
DWIDTH 4 0
BBX 5 10 0 -3
BITMAP
6A00
3E00
3E00
3E00
3A00
3A00
3A00
2500
0900
0780
ENDCHAR
STARTCHAR Cacute
ENCODING 262
SWIDTH 504 0
DWIDTH 5 0
BBX 5 10 0 -1
BITMAP
0240
0A40
1900
7F40
BF40
BB40
7100
7600
3E00
1400
ENDCHAR
STARTCHAR cacute
ENCODING 263
SWIDTH 534 0
DWIDTH 5 0
BBX 5 10 0 -1
BITMAP
0240
0A40
1900
BF40
BF80
BB80
7540
7600
3E00
0400
ENDCHAR
STARTCHAR Ccircumflex
ENCODING 264
SWIDTH 504 0
DWIDTH 5 0
BBX 5 12 0 -1
BITMAP
1400
2E00
7700
4100
1900
7F40
BF40
BB40
7100
7600
3E00
1400
ENDCHAR
STARTCHAR ccircumflex
ENCODING 265
SWIDTH 534 0
DWIDTH 5 0
BBX 5 12 0 -1
BITMAP
0500
2F00
3740
1040
1900
BF40
BF80
BB80
7540
7600
3E00
0400
ENDCHAR
STARTCHAR Cdotaccent
ENCODING 266
SWIDTH 504 0
DWIDTH 5 0
BBX 5 11 0 -1
BITMAP
2900
2E00
2900
1900
7F40
BF40
BB40
7100
7600
3E00
1400
ENDCHAR
STARTCHAR cdotaccent
ENCODING 267
SWIDTH 534 0
DWIDTH 5 0
BBX 5 11 0 -1
BITMAP
1A00
2E00
1E00
1900
BF40
BF80
BB80
7540
7600
3E00
0400
ENDCHAR
STARTCHAR Ccaron
ENCODING 268
SWIDTH 504 0
DWIDTH 5 0
BBX 5 12 0 -1
BITMAP
5100
6700
3E00
1800
1900
7F40
BF40
BB40
7100
7600
3E00
1400
ENDCHAR
STARTCHAR ccaron
ENCODING 269
SWIDTH 534 0
DWIDTH 5 0
BBX 5 12 0 -1
BITMAP
1100
3740
2F00
1900
1900
BF40
BF80
BB80
7540
7600
3E00
0400
ENDCHAR
STARTCHAR Dcaron
ENCODING 270
SWIDTH 522 0
DWIDTH 5 0
BBX 5 12 0 -1
BITMAP
1040
3680
2F00
0900
5900
7F40
7F80
3B40
3640
3700
2F00
1400
ENDCHAR
STARTCHAR dcaron
ENCODING 271
SWIDTH 522 0
DWIDTH 5 0
BBX 5 12 0 -1
BITMAP
1040
3680
2F00
0900
5900
7F40
7F80
3B40
3640
3700
2F00
1400
ENDCHAR
STARTCHAR Eth.dup2
ENCODING 272
SWIDTH 530 0
DWIDTH 5 0
BBX 5 8 0 -1
BITMAP
1A00
3F80
2FC0
2E80
6E80
1A40
1F00
1500
ENDCHAR
STARTCHAR Emacron
ENCODING 274
SWIDTH 570 0
DWIDTH 5 0
BBX 5 10 0 -1
BITMAP
2A00
1500
6A40
7F40
3F40
3900
3D00
3900
2E00
0400
ENDCHAR
STARTCHAR emacron
ENCODING 275
SWIDTH 632 0
DWIDTH 6 0
BBX 5 10 0 -1
BITMAP
2A40
1500
5A40
7FC0
3F80
3D40
2E00
2D00
1F00
0100
ENDCHAR
STARTCHAR Ebreve
ENCODING 276
SWIDTH 570 0
DWIDTH 5 0
BBX 5 11 0 -1
BITMAP
2540
1F40
0100
6A40
7F40
3F40
3900
3D00
3900
2E00
0400
ENDCHAR
STARTCHAR ebreve
ENCODING 277
SWIDTH 632 0
DWIDTH 6 0
BBX 5 11 0 -1
BITMAP
1880
0F80
0140
5A40
7FC0
3F80
3D40
2E00
2D00
1F00
0100
ENDCHAR
STARTCHAR Edotaccent
ENCODING 278
SWIDTH 570 0
DWIDTH 5 0
BBX 5 11 0 -1
BITMAP
1A00
2E00
1E00
6A40
7F40
3F40
3900
3D00
3900
2E00
0400
ENDCHAR
STARTCHAR edotaccent
ENCODING 279
SWIDTH 632 0
DWIDTH 6 0
BBX 5 11 0 -1
BITMAP
1A00
1F00
1E00
5A40
7FC0
3F80
3D40
2E00
2D00
1F00
0100
ENDCHAR
STARTCHAR Eogonek
ENCODING 280
SWIDTH 513 0
DWIDTH 5 0
BBX 5 10 0 -3
BITMAP
6A40
7F40
3F40
3900
3D00
3900
2E00
0900
0900
0740
ENDCHAR
STARTCHAR eogonek
ENCODING 281
SWIDTH 632 0
DWIDTH 6 0
BBX 5 10 0 -3
BITMAP
5A40
7FC0
3F80
3D40
2E00
2D00
1F00
0600
0640
02C0
ENDCHAR
STARTCHAR Ecaron
ENCODING 282
SWIDTH 570 0
DWIDTH 5 0
BBX 5 12 0 -1
BITMAP
1040
3680
2F00
0900
6A40
7F40
3F40
3900
3D00
3900
2E00
0400
ENDCHAR
STARTCHAR ecaron
ENCODING 283
SWIDTH 632 0
DWIDTH 6 0
BBX 5 12 0 -1
BITMAP
1040
29C0
0F80
0600
5A40
7FC0
3F80
3D40
2E00
2D00
1F00
0100
ENDCHAR
STARTCHAR Gcircumflex
ENCODING 284
SWIDTH 499 0
DWIDTH 4 0
BBX 5 12 0 -1
BITMAP
1400
3D00
6700
4100
1800
BF00
BF40
BB00
6600
7700
3F00
1500
ENDCHAR
STARTCHAR gcircumflex
ENCODING 285
SWIDTH 546 0
DWIDTH 5 0
BBX 5 12 0 -1
BITMAP
1400
3E00
6700
4100
1900
BF40
BF80
BB80
7240
3B40
3B40
1A00
ENDCHAR
STARTCHAR Gbreve
ENCODING 286
SWIDTH 499 0
DWIDTH 4 0
BBX 5 11 0 -1
BITMAP
6200
3E00
0500
1800
BF00
BF40
BB00
6600
7700
3F00
1500
ENDCHAR
STARTCHAR gbreve
ENCODING 287
SWIDTH 546 0
DWIDTH 5 0
BBX 5 11 0 -1
BITMAP
3240
2F00
0500
1900
BF40
BF80
BB80
7240
3B40
3B40
1A00
ENDCHAR
STARTCHAR Gdotaccent
ENCODING 288
SWIDTH 499 0
DWIDTH 4 0
BBX 5 11 0 -1
BITMAP
2900
3D00
2900
1800
BF00
BF40
BB00
6600
7700
3F00
1500
ENDCHAR
STARTCHAR gdotaccent
ENCODING 289
SWIDTH 546 0
DWIDTH 5 0
BBX 5 11 0 -1
BITMAP
2900
2E00
2900
1900
BF40
BF80
BB80
7240
3B40
3B40
1A00
ENDCHAR
STARTCHAR Gcommaaccent
ENCODING 290
SWIDTH 499 0
DWIDTH 4 0
BBX 5 13 0 -6
BITMAP
1800
BF00
BF40
BB00
6600
7700
3F00
1500
0000
1E00
2E00
0600
0500
ENDCHAR
STARTCHAR Hcircumflex
ENCODING 292
SWIDTH 726 0
DWIDTH 7 0
BBX 6 12 0 -1
BITMAP
0500
0F40
29C0
1040
5990
79E0
39D0
39D0
2FC0
2AC0
2A80
0140
ENDCHAR
STARTCHAR hcircumflex
ENCODING 293
SWIDTH 730 0
DWIDTH 7 0
BBX 6 12 0 -1
BITMAP
0500
0F40
19C0
1040
59A0
78F0
39E0
39D0
2FC0
29C0
2A80
0140
ENDCHAR
STARTCHAR hbar
ENCODING 295
SWIDTH 704 0
DWIDTH 6 0
BBX 6 8 0 -1
BITMAP
59A0
7AE0
3FD0
3AC0
2FC0
29C0
2A80
0140
ENDCHAR
STARTCHAR Itilde
ENCODING 296
SWIDTH 401 0
DWIDTH 4 0
BBX 5 10 -1 0
BITMAP
0100
7B40
2500
1A00
1F00
0F00
0E00
0E00
0A00
0A00
ENDCHAR
STARTCHAR itilde
ENCODING 297
SWIDTH 411 0
DWIDTH 4 0
BBX 5 10 -1 0
BITMAP
0100
7B40
1940
1A00
0F00
0F00
0E00
0A00
0A00
0900
ENDCHAR
STARTCHAR Imacron
ENCODING 298
SWIDTH 401 0
DWIDTH 4 0
BBX 3 9 0 0
BITMAP
A8
54
68
7C
3C
38
38
28
28
ENDCHAR
STARTCHAR imacron
ENCODING 299
SWIDTH 411 0
DWIDTH 4 0
BBX 4 9 0 0
BITMAP
A9
54
68
3C
3C
38
28
28
24
ENDCHAR
STARTCHAR Ibreve
ENCODING 300
SWIDTH 401 0
DWIDTH 4 0
BBX 4 10 0 0
BITMAP
95
7D
04
68
7C
3C
38
38
28
28
ENDCHAR
STARTCHAR ibreve
ENCODING 301
SWIDTH 411 0
DWIDTH 4 0
BBX 4 10 0 0
BITMAP
95
7D
04
68
3C
3C
38
28
28
24
ENDCHAR
STARTCHAR Iogonek
ENCODING 302
SWIDTH 401 0
DWIDTH 4 0
BBX 4 11 0 -4
BITMAP
68
7C
3C
38
38
28
28
24
30
39
04
ENDCHAR
STARTCHAR iogonek
ENCODING 303
SWIDTH 412 0
DWIDTH 4 0
BBX 4 11 0 -4
BITMAP
68
3C
3C
38
28
28
24
24
30
2D
04
ENDCHAR
STARTCHAR Idotaccent
ENCODING 304
SWIDTH 401 0
DWIDTH 4 0
BBX 3 10 0 0
BITMAP
68
7C
78
68
7C
3C
38
38
28
28
ENDCHAR
STARTCHAR dotlessi
ENCODING 305
SWIDTH 411 0
DWIDTH 4 0
BBX 3 7 0 0
BITMAP
68
3C
3C
38
28
28
24
ENDCHAR
STARTCHAR IJ
ENCODING 306
SWIDTH 908 0
DWIDTH 8 0
BBX 8 7 0 0
BITMAP
6919
7C1D
3C1D
3C1C
381C
28DC
28B8
ENDCHAR
STARTCHAR ij
ENCODING 307
SWIDTH 901 0
DWIDTH 8 0
BBX 8 7 0 0
BITMAP
6929
3C2E
3C1D
381D
281C
28DC
28B8
ENDCHAR
STARTCHAR Jcircumflex
ENCODING 308
SWIDTH 455 0
DWIDTH 4 0
BBX 5 11 0 0
BITMAP
0400
2E00
3740
5140
1900
1D00
1C00
1C00
1C00
D800
F800
ENDCHAR
STARTCHAR jcircumflex
ENCODING 309
SWIDTH 458 0
DWIDTH 4 0
BBX 5 11 0 0
BITMAP
0400
2E00
3740
5140
2900
2E00
1D00
1D00
1D00
DC00
BC00
ENDCHAR
STARTCHAR Kcommaaccent
ENCODING 310
SWIDTH 580 0
DWIDTH 5 0
BBX 5 12 0 -5
BITMAP
6640
7B40
3E00
2E00
2E00
1E00
1700
0100
0F00
1F00
0300
0200
ENDCHAR
STARTCHAR kcommaaccent
ENCODING 311
SWIDTH 636 0
DWIDTH 6 0
BBX 5 12 0 -5
BITMAP
6580
7A40
2B00
2E00
2E00
1F00
1A40
0000
0F40
0F40
0240
0200
ENDCHAR
STARTCHAR kgreenlandic
ENCODING 312
SWIDTH 636 0
DWIDTH 6 0
BBX 5 7 0 0
BITMAP
6580
7A40
2B00
2E00
2E00
1F00
1A40
ENDCHAR
STARTCHAR Lacute
ENCODING 313
SWIDTH 416 0
DWIDTH 4 0
BBX 5 10 0 -1
BITMAP
0240
0A40
6800
7400
7400
3400
3400
3900
2F00
0500
ENDCHAR
STARTCHAR lacute
ENCODING 314
SWIDTH 438 0
DWIDTH 4 0
BBX 5 10 0 -1
BITMAP
0240
0A40
6900
7800
3800
3800
2800
2900
2F00
1100
ENDCHAR
STARTCHAR Lcommaaccent
ENCODING 315
SWIDTH 416 0
DWIDTH 4 0
BBX 4 12 0 -5
BITMAP
68
74
74
34
34
39
2F
05
3C
3D
08
08
ENDCHAR
STARTCHAR lcommaaccent
ENCODING 316
SWIDTH 438 0
DWIDTH 4 0
BBX 4 12 0 -5
BITMAP
69
78
38
38
28
29
2F
11
2D
2D
09
08
ENDCHAR
STARTCHAR Lcaron
ENCODING 317
SWIDTH 714 0
DWIDTH 6 0
BBX 6 8 0 -1
BITMAP
69F0
75F0
74B0
3430
3410
3900
2F00
0500
ENDCHAR
STARTCHAR lcaron
ENCODING 318
SWIDTH 782 0
DWIDTH 7 0
BBX 7 8 0 -1
BITMAP
69B8
78B8
3868
3818
2800
2900
2F00
1100
ENDCHAR
STARTCHAR Ldotaccent
ENCODING 319
SWIDTH 567 0
DWIDTH 5 0
BBX 6 8 0 -1
BITMAP
6800
7540
76D0
36E0
3540
3900
2F00
0500
ENDCHAR
STARTCHAR ldot
ENCODING 320
SWIDTH 660 0
DWIDTH 6 0
BBX 7 8 0 -1
BITMAP
6900
7800
38A0
38F4
28E0
2900
2F00
1100
ENDCHAR
STARTCHAR Lslash
ENCODING 321
SWIDTH 428 0
DWIDTH 4 0
BBX 4 8 0 -1
BITMAP
68
74
3A
BF
B8
29
2F
05
ENDCHAR
STARTCHAR lslash
ENCODING 322
SWIDTH 457 0
DWIDTH 4 0
BBX 5 8 0 -1
BITMAP
6900
3C00
3E40
7F40
B800
2900
1F00
1100
ENDCHAR
STARTCHAR Nacute
ENCODING 323
SWIDTH 610 0
DWIDTH 6 0
BBX 6 10 0 -1
BITMAP
0090
0290
6640
7A80
3F80
3F40
3F40
2B40
2700
1600
ENDCHAR
STARTCHAR nacute
ENCODING 324
SWIDTH 664 0
DWIDTH 6 0
BBX 6 10 0 -1
BITMAP
0060
0290
6990
7DD0
7EC0
3FC0
3F80
3B80
2740
1200
ENDCHAR
STARTCHAR Ncommaaccent
ENCODING 325
SWIDTH 610 0
DWIDTH 6 0
BBX 5 13 0 -6
BITMAP
6640
7A80
3F80
3F40
3F40
2B40
2700
1600
0000
0F40
0F40
0200
0200
ENDCHAR
STARTCHAR ncommaaccent
ENCODING 326
SWIDTH 664 0
DWIDTH 6 0
BBX 6 13 0 -6
BITMAP
6990
7DD0
7EC0
3FC0
3F80
3B80
2740
1200
0000
0B40
0B40
0240
0240
ENDCHAR
STARTCHAR Ncaron
ENCODING 327
SWIDTH 610 0
DWIDTH 6 0
BBX 5 12 0 -1
BITMAP
1040
3680
1F40
0900
6640
7A80
3F80
3F40
3F40
2B40
2700
1600
ENDCHAR
STARTCHAR ncaron
ENCODING 328
SWIDTH 664 0
DWIDTH 6 0
BBX 6 12 0 -1
BITMAP
1040
29C0
0F80
0600
6990
7DD0
7EC0
3FC0
3F80
3B80
2740
1200
ENDCHAR
STARTCHAR Omacron
ENCODING 332
SWIDTH 504 0
DWIDTH 5 0
BBX 5 10 0 -1
BITMAP
6900
1500
1900
BF40
BF40
BB40
7740
7700
3E00
1400
ENDCHAR
STARTCHAR omacron
ENCODING 333
SWIDTH 545 0
DWIDTH 5 0
BBX 5 10 0 -1
BITMAP
2A00
1500
1900
BF80
BF80
BB80
7340
7740
3F00
0500
ENDCHAR
STARTCHAR Obreve
ENCODING 334
SWIDTH 504 0
DWIDTH 5 0
BBX 5 11 0 -1
BITMAP
2200
3F00
0500
1900
BF40
BF40
BB40
7740
7700
3E00
1400
ENDCHAR
STARTCHAR obreve
ENCODING 335
SWIDTH 545 0
DWIDTH 5 0
BBX 5 11 0 -1
BITMAP
3200
2F00
0500
1900
BF80
BF80
BB80
7340
7740
3F00
0500
ENDCHAR
STARTCHAR Ohungarumlaut
ENCODING 336
SWIDTH 504 0
DWIDTH 5 0
BBX 5 11 0 -1
BITMAP
3740
6600
4400
1900
BF40
BF40
BB40
7740
7700
3E00
1400
ENDCHAR
STARTCHAR ohungarumlaut
ENCODING 337
SWIDTH 545 0
DWIDTH 5 0
BBX 5 11 0 -1
BITMAP
2680
6600
4400
1900
BF80
BF80
BB80
7340
7740
3F00
0500
ENDCHAR
STARTCHAR OE
ENCODING 338
SWIDTH 789 0
DWIDTH 7 0
BBX 7 8 0 -1
BITMAP
1AA4
BFF4
BFF0
BB50
77D0
7790
3FE0
1550
ENDCHAR
STARTCHAR oe
ENCODING 339
SWIDTH 778 0
DWIDTH 7 0
BBX 7 8 0 -1
BITMAP
1A94
BFF4
BFF0
BBA0
7790
3790
3FD0
0550
ENDCHAR
STARTCHAR Racute
ENCODING 340
SWIDTH 599 0
DWIDTH 5 0
BBX 6 10 0 -1
BITMAP
0080
0390
6A40
7FC0
3FC0
2AC0
2FC0
1F40
1E80
0440
ENDCHAR
STARTCHAR racute
ENCODING 341
SWIDTH 616 0
DWIDTH 6 0
BBX 6 10 0 -1
BITMAP
0090
0290
6A40
7FD0
3FD0
2DC0
2FC0
2F40
2A40
1540
ENDCHAR
STARTCHAR Rcommaaccent
ENCODING 342
SWIDTH 599 0
DWIDTH 5 0
BBX 5 12 0 -5
BITMAP
6A40
7FC0
3FC0
2AC0
2FC0
1F40
1E80
0440
0F00
0F00
0300
0200
ENDCHAR
STARTCHAR rcommaaccent
ENCODING 343
SWIDTH 616 0
DWIDTH 6 0
BBX 6 12 0 -5
BITMAP
6A40
7FD0
3FD0
2DC0
2FC0
2F40
2A40
1540
0F00
0F00
0300
0200
ENDCHAR
STARTCHAR Rcaron
ENCODING 344
SWIDTH 599 0
DWIDTH 5 0
BBX 5 12 0 -1
BITMAP
1040
29C0
1F40
0A00
6A40
7FC0
3FC0
2AC0
2FC0
1F40
1E80
0440
ENDCHAR
STARTCHAR rcaron
ENCODING 345
SWIDTH 616 0
DWIDTH 6 0
BBX 6 12 0 -1
BITMAP
1040
2AC0
1F40
0A00
6A40
7FD0
3FD0
2DC0
2FC0
2F40
2A40
1540
ENDCHAR
STARTCHAR Sacute
ENCODING 346
SWIDTH 504 0
DWIDTH 5 0
BBX 5 10 0 -1
BITMAP
0180
0680
1900
7F40
BF40
BA40
7D00
2B00
7E00
1400
ENDCHAR
STARTCHAR sacute
ENCODING 347
SWIDTH 481 0
DWIDTH 4 0
BBX 5 10 0 -1
BITMAP
0180
0A80
1900
7F00
BF00
BB00
7D00
1A00
7D00
1400
ENDCHAR
STARTCHAR Scircumflex
ENCODING 348
SWIDTH 504 0
DWIDTH 5 0
BBX 5 12 0 -1
BITMAP
0400
2E00
3740
5140
1900
7F40
BF40
BA40
7D00
2B00
7E00
1400
ENDCHAR
STARTCHAR scircumflex
ENCODING 349
SWIDTH 481 0
DWIDTH 4 0
BBX 4 12 0 -1
BITMAP
14
2E
77
41
19
7F
BF
BB
7D
1A
7D
14
ENDCHAR
STARTCHAR Scedilla
ENCODING 350
SWIDTH 504 0
DWIDTH 5 0
BBX 5 10 0 -3
BITMAP
1900
7F40
BF40
BA40
7D00
2B00
7E00
1C00
0900
0900
ENDCHAR
STARTCHAR scedilla
ENCODING 351
SWIDTH 481 0
DWIDTH 4 0
BBX 4 10 0 -3
BITMAP
19
7F
BF
BB
7D
1A
7D
28
18
18
ENDCHAR
STARTCHAR Scaron
ENCODING 352
SWIDTH 503 0
DWIDTH 5 0
BBX 5 12 0 -1
BITMAP
A340
3E00
2900
0000
1900
7F40
BF40
BA40
7D00
2B00
7E00
1400
ENDCHAR
STARTCHAR scaron
ENCODING 353
SWIDTH 479 0
DWIDTH 4 0
BBX 4 12 0 -1
BITMAP
A3
7A
2D
00
19
7F
BF
BB
7D
1A
7D
14
ENDCHAR
STARTCHAR Tcommaaccent
ENCODING 354
SWIDTH 622 0
DWIDTH 6 0
BBX 5 11 0 -4
BITMAP
6A40
7FC0
3FC0
2E40
0A00
0A00
0A00
0900
0500
0600
0600
ENDCHAR
STARTCHAR tcommaaccent
ENCODING 355
SWIDTH 683 0
DWIDTH 6 0
BBX 6 11 0 -4
BITMAP
6A90
7FD0
3FD0
2B40
0700
0700
0700
0700
0200
0240
0240
ENDCHAR
STARTCHAR Tcaron
ENCODING 356
SWIDTH 622 0
DWIDTH 6 0
BBX 5 12 0 -1
BITMAP
1040
3680
2F00
0900
6A40
7FC0
3FC0
2E40
0A00
0A00
0A00
0900
ENDCHAR
STARTCHAR tcaron
ENCODING 357
SWIDTH 622 0
DWIDTH 6 0
BBX 5 12 0 -1
BITMAP
1040
2AC0
1F40
0A00
6A40
7FC0
3FC0
2E40
0A00
0A00
0A00
0900
ENDCHAR
STARTCHAR Utilde
ENCODING 360
SWIDTH 637 0
DWIDTH 6 0
BBX 5 9 0 0
BITMAP
3B80
1940
6540
76C0
3A80
3680
3740
3B40
2A00
ENDCHAR
STARTCHAR utilde
ENCODING 361
SWIDTH 708 0
DWIDTH 6 0
BBX 6 9 0 0
BITMAP
2BC0
1940
6850
79F0
3DE0
2DD0
2DD0
1EC0
1E80
ENDCHAR
STARTCHAR Umacron
ENCODING 362
SWIDTH 637 0
DWIDTH 6 0
BBX 5 9 0 0
BITMAP
1A40
1500
6540
76C0
3A80
3680
3740
3B40
2A00
ENDCHAR
STARTCHAR umacron
ENCODING 363
SWIDTH 708 0
DWIDTH 6 0
BBX 6 9 0 0
BITMAP
1A40
0540
6850
79F0
3DE0
2DD0
2DD0
1EC0
1E80
ENDCHAR
STARTCHAR Ubreve
ENCODING 364
SWIDTH 637 0
DWIDTH 6 0
BBX 5 10 0 0
BITMAP
1980
1F80
0100
6540
76C0
3A80
3680
3740
3B40
2A00
ENDCHAR
STARTCHAR ubreve
ENCODING 365
SWIDTH 708 0
DWIDTH 6 0
BBX 6 10 0 0
BITMAP
0880
0BC0
0140
6850
79F0
3DE0
2DD0
2DD0
1EC0
1E80
ENDCHAR
STARTCHAR Uring
ENCODING 366
SWIDTH 637 0
DWIDTH 6 0
BBX 5 10 0 0
BITMAP
0A00
0A00
0500
6540
76C0
3A80
3680
3740
3B40
2A00
ENDCHAR
STARTCHAR uring
ENCODING 367
SWIDTH 708 0
DWIDTH 6 0
BBX 6 10 0 0
BITMAP
0A40
0940
0100
6850
79F0
3DE0
2DD0
2DD0
1EC0
1E80
ENDCHAR
STARTCHAR Uhungarumlaut
ENCODING 368
SWIDTH 637 0
DWIDTH 6 0
BBX 5 10 0 0
BITMAP
1DC0
2640
1100
6540
76C0
3A80
3680
3740
3B40
2A00
ENDCHAR
STARTCHAR uhungarumlaut
ENCODING 369
SWIDTH 708 0
DWIDTH 6 0
BBX 6 10 0 0
BITMAP
0DD0
1980
1100
6850
79F0
3DE0
2DD0
2DD0
1EC0
1E80
ENDCHAR
STARTCHAR Uogonek
ENCODING 370
SWIDTH 637 0
DWIDTH 6 0
BBX 5 10 0 -3
BITMAP
6540
76C0
3A80
3680
3740
3B40
2B00
0600
0600
02C0
ENDCHAR
STARTCHAR uogonek
ENCODING 371
SWIDTH 662 0
DWIDTH 6 0
BBX 6 10 0 -3
BITMAP
6850
79F0
3DE0
3DD0
2DC0
2EC0
1F80
0500
0A00
0780
ENDCHAR
STARTCHAR Wcircumflex
ENCODING 372
SWIDTH 777 0
DWIDTH 7 0
BBX 7 11 0 0
BITMAP
0500
0B80
1DD0
1040
1624
7BB4
2FE0
1FD0
0FC0
0AC0
0680
ENDCHAR
STARTCHAR wcircumflex
ENCODING 373
SWIDTH 704 0
DWIDTH 6 0
BBX 6 11 0 0
BITMAP
0500
0F40
19C0
1040
5550
7BA0
2FD0
1FC0
0FC0
0E80
0580
ENDCHAR
STARTCHAR Ycircumflex
ENCODING 374
SWIDTH 688 0
DWIDTH 6 0
BBX 6 12 0 -1
BITMAP
0500
0F40
29C0
1040
6490
2EE0
0B80
0740
0340
0340
0240
0100
ENDCHAR
STARTCHAR ycircumflex
ENCODING 375
SWIDTH 604 0
DWIDTH 5 0
BBX 5 12 0 -1
BITMAP
0500
2F00
3740
1040
6540
2B80
1F00
0E00
0A00
0A00
0A00
0400
ENDCHAR
STARTCHAR Ydieresis
ENCODING 376
SWIDTH 688 0
DWIDTH 6 0
BBX 6 11 0 -1
BITMAP
1440
39D0
2990
6490
2EE0
0B80
0740
0340
0340
0240
0100
ENDCHAR
STARTCHAR Zacute
ENCODING 377
SWIDTH 695 0
DWIDTH 6 0
BBX 6 9 0 0
BITMAP
0060
01E0
6A90
7FE0
3FD0
2B80
0A00
0D00
1F00
ENDCHAR
STARTCHAR zacute
ENCODING 378
SWIDTH 622 0
DWIDTH 6 0
BBX 6 10 0 -1
BITMAP
0090
0290
6A40
7FC0
3F80
2B40
0900
0D00
1F00
0100
ENDCHAR
STARTCHAR Zdotaccent
ENCODING 379
SWIDTH 695 0
DWIDTH 6 0
BBX 6 10 0 0
BITMAP
0A40
0F40
0A40
6A90
7FE0
3FD0
2B80
0A00
0D00
1F00
ENDCHAR
STARTCHAR zdotaccent
ENCODING 380
SWIDTH 622 0
DWIDTH 6 0
BBX 5 11 0 -1
BITMAP
1A00
1F00
1E00
6A40
7FC0
3F80
2B40
0900
0D00
1F00
0100
ENDCHAR
STARTCHAR Zcaron
ENCODING 381
SWIDTH 693 0
DWIDTH 6 0
BBX 6 11 0 0
BITMAP
29C0
0F80
0A00
0000
6A50
7FE0
3FD0
2B80
0A00
0D00
1F00
ENDCHAR
STARTCHAR zcaron
ENCODING 382
SWIDTH 621 0
DWIDTH 6 0
BBX 5 13 0 -1
BITMAP
1000
3680
2F40
0A00
0000
6A40
7FC0
3F80
2B40
0900
0D00
1F00
0100
ENDCHAR
STARTCHAR DZ
ENCODING 497
SWIDTH 194 0
DWIDTH 2 0
BBX 1 1 0 0
BITMAP
00
ENDCHAR
STARTCHAR Dz
ENCODING 498
SWIDTH 194 0
DWIDTH 2 0
BBX 1 1 0 0
BITMAP
00
ENDCHAR
STARTCHAR dotlessj
ENCODING 567
SWIDTH 458 0
DWIDTH 4 0
BBX 4 7 0 0
BITMAP
29
2E
1D
1D
1D
DC
BC
ENDCHAR
STARTCHAR circumflex
ENCODING 710
SWIDTH 528 0
DWIDTH 5 0
BBX 4 4 0 6
BITMAP
14
3E
67
41
ENDCHAR
STARTCHAR caron
ENCODING 711
SWIDTH 486 0
DWIDTH 4 0
BBX 4 4 0 6
BITMAP
41
A7
3E
18
ENDCHAR
STARTCHAR breve
ENCODING 728
SWIDTH 464 0
DWIDTH 4 0
BBX 4 3 0 -1
BITMAP
56
7D
04
ENDCHAR
STARTCHAR dotaccent
ENCODING 729
SWIDTH 388 0
DWIDTH 4 0
BBX 3 3 0 2
BITMAP
68
7C
78
ENDCHAR
STARTCHAR ring
ENCODING 730
SWIDTH 370 0
DWIDTH 3 0
BBX 3 3 0 2
BITMAP
68
68
10
ENDCHAR
STARTCHAR ogonek
ENCODING 731
SWIDTH 360 0
DWIDTH 3 0
BBX 3 3 0 0
BITMAP
50
60
38
ENDCHAR
STARTCHAR tilde
ENCODING 732
SWIDTH 535 0
DWIDTH 5 0
BBX 5 2 0 -1
BITMAP
7B40
2500
ENDCHAR
STARTCHAR hungarumlaut
ENCODING 733
SWIDTH 554 0
DWIDTH 5 0
BBX 5 3 0 6
BITMAP
3780
6600
4400
ENDCHAR
STARTCHAR dotaccentcmb
ENCODING 775
SWIDTH 396 0
DWIDTH 4 0
BBX 3 3 0 3
BITMAP
7C
7C
24
ENDCHAR
STARTCHAR uni030F
ENCODING 783
SWIDTH 549 0
DWIDTH 5 0
BBX 5 3 0 6
BITMAP
A700
2640
0440
ENDCHAR
STARTCHAR uni0311
ENCODING 785
SWIDTH 490 0
DWIDTH 4 0
BBX 4 3 0 3
BITMAP
18
7A
51
ENDCHAR
STARTCHAR uni0326
ENCODING 806
SWIDTH 360 0
DWIDTH 3 0
BBX 3 4 0 -1
BITMAP
78
78
18
14
ENDCHAR
STARTCHAR endash
ENCODING 8211
SWIDTH 478 0
DWIDTH 4 0
BBX 4 3 0 2
BITMAP
15
7E
15
ENDCHAR
STARTCHAR emdash
ENCODING 8212
SWIDTH 567 0
DWIDTH 5 0
BBX 5 3 0 2
BITMAP
1540
7F40
1500
ENDCHAR
STARTCHAR quoteleft
ENCODING 8216
SWIDTH 373 0
DWIDTH 3 0
BBX 3 5 0 2
BITMAP
10
60
78
7C
68
ENDCHAR
STARTCHAR quoteright
ENCODING 8217
SWIDTH 369 0
DWIDTH 3 0
BBX 3 5 0 2
BITMAP
64
B8
B8
18
14
ENDCHAR
STARTCHAR quotesinglbase
ENCODING 8218
SWIDTH 369 0
DWIDTH 3 0
BBX 3 5 0 2
BITMAP
64
B8
B8
18
14
ENDCHAR
STARTCHAR quotedblleft
ENCODING 8220
SWIDTH 687 0
DWIDTH 6 0
BBX 6 5 0 2
BITMAP
1140
6240
7AE0
7EE0
6990
ENDCHAR
STARTCHAR quotedblright
ENCODING 8221
SWIDTH 677 0
DWIDTH 6 0
BBX 6 5 0 2
BITMAP
6590
BAE0
BAE0
1890
1450
ENDCHAR
STARTCHAR quotedblbase
ENCODING 8222
SWIDTH 697 0
DWIDTH 6 0
BBX 6 5 0 -3
BITMAP
6590
BAE0
BAE0
1860
1450
ENDCHAR
STARTCHAR ellipsis
ENCODING 8230
SWIDTH 1462 0
DWIDTH 13 0
BBX 13 3 0 0
BITMAP
781E0B80
781E0780
64150540
ENDCHAR
STARTCHAR guilsinglleft
ENCODING 8249
SWIDTH 459 0
DWIDTH 4 0
BBX 4 6 0 0
BITMAP
15
2D
B4
78
2D
05
ENDCHAR
STARTCHAR guilsinglright
ENCODING 8250
SWIDTH 432 0
DWIDTH 4 0
BBX 4 6 0 0
BITMAP
64
38
1D
2D
78
10
ENDCHAR
STARTCHAR fraction
ENCODING 8260
SWIDTH 371 0
DWIDTH 3 0
BBX 3 7 0 0
BITMAP
68
7C
38
38
34
24
24
ENDCHAR
STARTCHAR Euro
ENCODING 8364
SWIDTH 587 0
DWIDTH 5 0
BBX 5 9 0 -2
BITMAP
0A00
3F80
3FC0
3A80
7840
6A40
1F40
0500
0400
ENDCHAR
STARTCHAR trademark
ENCODING 8482
SWIDTH 785 0
DWIDTH 7 0
BBX 7 5 0 2
BITMAP
69A4
BDF4
24F4
20A4
1000
ENDCHAR
STARTCHAR minus
ENCODING 8722
SWIDTH 478 0
DWIDTH 4 0
BBX 4 3 0 2
BITMAP
15
7E
15
ENDCHAR
STARTCHAR commaaccent
ENCODING 63171
SWIDTH 360 0
DWIDTH 3 0
BBX 3 4 0 -1
BITMAP
B8
B8
68
18
ENDCHAR
STARTCHAR .notdef
ENCODING -1
SWIDTH 365 0
DWIDTH 3 0
BBX 3 6 0 0
BITMAP
54
44
44
44
44
54
ENDCHAR
STARTCHAR .null
ENCODING -1
SWIDTH 0 0
DWIDTH 0 0
BBX 1 1 0 0
BITMAP
00
ENDCHAR
STARTCHAR nonmarkingreturn
ENCODING -1
SWIDTH 333 0
DWIDTH 3 0
BBX 1 1 0 0
BITMAP
00
ENDCHAR
ENDFONT
